# xmcd
#
# Track frame offsets:
#	150
#	15262
#	29514
#	44528
#	63632
#	81765
#	100321
#	118587
#	125768
#	139124
#	151783
#	172445
#	188811
#	207573
#	219705
#	235289
#
# Disc length: 3386 seconds
#
# Revision: 12
# Processed by: cddbd v1.5.1PL0 Copyright (c) Steve Scherf et al.
# Submitted via: EasyCDDAExtractor 8.2.1.1
#
DISCID=ee0d3810
DTITLE=йотсияас циаммгс - йотсияас циаммгс LIVE 2002 CD1
DYEAR=2002
DGENRE=ENTEXNO
TTITLE0=ежта потгяиа
TTITLE1=амахела ле
TTITLE2=кееи кееи кееи
TTITLE3=циа поу то ебакес йаядиа лоу
TTITLE4=акенамдяеиа
TTITLE5=етси йи аккиыс
TTITLE6=жтамеи поу йкаиле
TTITLE7=BANNANA BOAT
TTITLE8=йяоуафиеяа
TTITLE9=лиа бяадиа сто коуйи
TTITLE10=пыс лпояы
TTITLE11=тужкес екпидес
TTITLE12=типота
TTITLE13=ежапан
TTITLE14=дем еилаи апо еды
TTITLE15=олояжг йаи паяанемг патяида
EXTD=YEAR: 2002 ID3G: 17
EXTT0=
EXTT1=
EXTT2=
EXTT3=
EXTT4=
EXTT5=
EXTT6=
EXTT7=
EXTT8=
EXTT9=
EXTT10=
EXTT11=
EXTT12=
EXTT13=
EXTT14=
EXTT15=
PLAYORDER=
